grf
version=1
nRows=17
nColumns=37
inDegrees=no
endheader
time	ground_force_1_vx	ground_force_1_vy	ground_force_1_vz	ground_force_1_px	ground_force_1_py	ground_force_1_pz	ground_moment_1_mx	ground_moment_1_my	ground_moment_1_mz	ground_force_2_vx	ground_force_2_vy	ground_force_2_vz	ground_force_2_px	ground_force_2_py	ground_force_2_pz	ground_moment_2_mx	ground_moment_2_my	ground_moment_2_mz	ground_force_3_vx	ground_force_3_vy	ground_force_3_vz	ground_force_3_px	ground_force_3_py	ground_force_3_pz	ground_moment_3_mx	ground_moment_3_my	ground_moment_3_mz	ground_force_4_vx	ground_force_4_vy	ground_force_4_vz	ground_force_4_px	ground_force_4_py	ground_force_4_pz	ground_moment_4_mx	ground_moment_4_my	ground_moment_4_mz
      0.00000000	      0.00000000	     -0.00000000	      0.00000000	      0.00000000	      0.00000000	      0.00000000	      0.00000000	      0.00000000	      0.00000000	      2.82536387	     10.03409672	   -503.92852783	   -315.22250724	  -1004.19694466	      0.00000000	      0.00000000	      0.00000000	    304.19074069	     -4.45024215	    -12.13691291	   -212.72111511	   -297.94003333	   -813.68664259	      0.00000000	      0.00000000	     -0.00000000	  -1509.68222799	      0.00000000	     -0.00000000	      0.00000000	      0.00000000	      0.00000000	      0.00000000	      0.00000000	      0.00000000	      0.00000000
      0.01000000	      0.00000000	     -0.00000000	      0.00000000	      0.00000000	      0.00000000	      0.00000000	      0.00000000	      0.00000000	      0.00000000	      3.16762757	      9.93050289	   -503.63458252	   -315.20240333	  -1003.51498840	      0.00000000	      0.00000000	      0.00000000	    308.80129046	     -4.67201627	    -12.31349332	   -213.38999939	   -296.98106482	   -812.95548334	      0.00000000	      0.00000000	     -0.00000000	  -1576.16812325	      0.00000000	     -0.00000000	      0.00000000	      0.00000000	      0.00000000	      0.00000000	      0.00000000	      0.00000000	      0.00000000
      0.02000000	      0.00000000	     -0.00000000	      0.00000000	      0.00000000	      0.00000000	      0.00000000	      0.00000000	      0.00000000	      0.00000000	      3.55318308	     10.25871372	   -504.84057617	   -315.44952552	  -1004.11707024	      0.00000000	      0.00000000	      0.00000000	    321.52336947	     -4.49545347	    -12.13677558	   -212.22523499	   -297.14747907	   -813.37076206	      0.00000000	      0.00000000	     -0.00000000	  -1536.85103517	      0.00000000	     -0.00000000	      0.00000000	      0.00000000	      0.00000000	      0.00000000	      0.00000000	      0.00000000	      0.00000000
      0.03000000	      0.00000000	     -0.00000000	      0.00000000	      0.00000000	      0.00000000	      0.00000000	      0.00000000	      0.00000000	      0.00000000	      3.88214493	     10.17621613	   -504.90112305	   -315.87578980	  -1004.19106899	      0.00000000	      0.00000000	      0.00000000	    323.36563255	     -4.55254374	    -12.04182585	   -212.57388306	   -297.69297876	   -811.89061010	      0.00000000	      0.00000000	     -0.00000000	  -1534.70911598	      0.00000000	     -0.00000000	      0.00000000	      0.00000000	      0.00000000	      0.00000000	      0.00000000	      0.00000000	      0.00000000
      0.04000000	      0.00000000	     -0.00000000	      0.00000000	      0.00000000	      0.00000000	      0.00000000	      0.00000000	      0.00000000	      0.00000000	      3.85154319	      9.89934635	   -505.65429688	   -315.68995828	  -1004.49575697	      0.00000000	      0.00000000	      0.00000000	    244.65481105	     -4.71690329	    -11.84135682	   -212.83787537	   -297.03185952	   -811.49551588	      0.00000000	      0.00000000	     -0.00000000	  -1571.07000197	      0.00000000	     -0.00000000	      0.00000000	      0.00000000	      0.00000000	      0.00000000	      0.00000000	      0.00000000	      0.00000000
      0.05000000	      0.00000000	     -0.00000000	      0.00000000	      0.00000000	      0.00000000	      0.00000000	      0.00000000	      0.00000000	      0.00000000	      3.82040977	     10.18198872	   -505.13101196	   -315.92340323	  -1004.35632815	      0.00000000	      0.00000000	      0.00000000	    265.61269636	     -4.82704840	    -11.99643570	   -212.24688721	   -297.18474889	   -813.70921386	      0.00000000	      0.00000000	     -0.00000000	  -1591.64827583	      0.00000000	     -0.00000000	      0.00000000	      0.00000000	      0.00000000	      0.00000000	      0.00000000	      0.00000000	      0.00000000
      0.06000000	      0.00000000	     -0.00000000	      0.00000000	      0.00000000	      0.00000000	      0.00000000	      0.00000000	      0.00000000	      0.00000000	      3.51593447	      9.82528877	   -504.34094238	   -315.77887583	  -1003.84688088	      0.00000000	      0.00000000	      0.00000000	    242.27162556	     -4.75938473	    -11.99631745	   -212.89941406	   -296.90087327	   -812.96090555	      0.00000000	      0.00000000	     -0.00000000	  -1604.18528582	      0.00000000	     -0.00000000	      0.00000000	      0.00000000	      0.00000000	      0.00000000	      0.00000000	      0.00000000	      0.00000000
      0.07000000	      0.00000000	     -0.00000000	      0.00000000	      0.00000000	      0.00000000	      0.00000000	      0.00000000	      0.00000000	      0.00000000	      3.28488302	     10.19748497	   -504.61199951	   -316.11923417	  -1003.69894212	      0.00000000	      0.00000000	     -0.00000000	    229.14868433	     -4.89998540	    -11.95457606	   -213.53698730	   -296.22348342	   -812.50559030	      0.00000000	      0.00000000	     -0.00000000	  -1533.66327497	      0.00000000	     -0.00000000	      0.00000000	      0.00000000	      0.00000000	      0.00000000	      0.00000000	      0.00000000	      0.00000000
      0.08000000	      0.00000000	     -0.00000000	      0.00000000	      0.00000000	      0.00000000	      0.00000000	      0.00000000	      0.00000000	      0.00000000	      3.48369694	     10.27051163	   -505.12860107	   -315.72916860	  -1003.53520415	      0.00000000	      0.00000000	      0.00000000	    273.55223328	     -5.16101036	    -11.93914178	   -214.85247803	   -297.87342345	   -810.52135401	      0.00000000	     -0.00000000	     -0.00000000	  -1472.69556166	      0.00000000	     -0.00000000	      0.00000000	      0.00000000	      0.00000000	      0.00000000	      0.00000000	      0.00000000	      0.00000000
      0.09000000	      0.00000000	     -0.00000000	      0.00000000	      0.00000000	      0.00000000	      0.00000000	      0.00000000	      0.00000000	      0.00000000	      3.92526245	      9.85698509	   -505.46447754	   -315.90534116	  -1003.73502457	      0.00000000	      0.00000000	      0.00000000	    414.34715968	     -4.66526808	    -12.43752534	   -214.74635315	   -296.45337566	   -813.63343101	      0.00000000	      0.00000000	     -0.00000000	  -1724.43767003	      0.00000000	     -0.00000000	      0.00000000	      0.00000000	      0.00000000	      0.00000000	      0.00000000	      0.00000000	      0.00000000
      0.10000000	      0.00000000	     -0.00000000	      0.00000000	      0.00000000	      0.00000000	      0.00000000	      0.00000000	      0.00000000	      0.00000000	      4.01447296	      9.78804207	   -505.33587646	   -316.42855160	  -1003.47804346	      0.00000000	      0.00000000	      0.00000000	    422.43598898	     -4.84276496	    -12.17241054	   -216.55380249	   -296.79458020	   -812.50691125	      0.00000000	      0.00000000	     -0.00000000	  -1588.31519719	      0.00000000	     -0.00000000	      0.00000000	      0.00000000	      0.00000000	      0.00000000	      0.00000000	      0.00000000	      0.00000000
      0.11000000	      0.00000000	     -0.00000000	      0.00000000	      0.00000000	      0.00000000	      0.00000000	      0.00000000	      0.00000000	      0.00000000	      3.90532422	      9.59322357	   -504.34094238	   -316.54435212	  -1003.23516051	      0.00000000	      0.00000000	      0.00000000	    441.71579529	     -5.04033672	    -12.18450121	   -215.96672058	   -296.44560993	   -814.10510746	      0.00000000	      0.00000000	     -0.00000000	  -1592.13446017	      0.00000000	     -0.00000000	      0.00000000	      0.00000000	      0.00000000	      0.00000000	      0.00000000	      0.00000000	      0.00000000
      0.12000000	      0.00000000	     -0.00000000	      0.00000000	      0.00000000	      0.00000000	      0.00000000	      0.00000000	      0.00000000	      0.00000000	      3.88894296	      9.17725849	   -504.90353394	   -316.19888255	  -1003.80861696	      0.00000000	      0.00000000	     -0.00000000	    342.15079867	     -4.93519510	    -12.40107970	   -217.18644714	   -296.29063905	   -813.21143732	      0.00000000	      0.00000000	     -0.00000000	  -1614.62099452	      0.00000000	     -0.00000000	      0.00000000	      0.00000000	      0.00000000	      0.00000000	      0.00000000	      0.00000000	      0.00000000
      0.13000000	      0.00000000	     -0.00000000	      0.00000000	      0.00000000	      0.00000000	      0.00000000	      0.00000000	      0.00000000	      0.00000000	      4.26258278	      9.57596111	   -504.40716553	   -316.70865795	  -1003.30302871	      0.00000000	      0.00000000	      0.00000000	    496.48823909	     -4.81005632	    -12.20797878	   -217.58621216	   -296.89884699	   -812.13720427	      0.00000000	      0.00000000	     -0.00000000	  -1601.88463948	      0.00000000	     -0.00000000	      0.00000000	      0.00000000	      0.00000000	      0.00000000	      0.00000000	      0.00000000	      0.00000000
      0.14000000	      0.00000000	     -0.00000000	      0.00000000	      0.00000000	      0.00000000	      0.00000000	      0.00000000	      0.00000000	      0.00000000	      4.15670919	      9.28388786	   -504.96084595	   -316.03111995	  -1004.28134814	      0.00000000	      0.00000000	      0.00000000	    351.00335096	     -4.80987946	    -12.66591125	   -218.07778931	   -296.11429183	   -812.34672849	      0.00000000	      0.00000000	     -0.00000000	  -1594.32342461	      0.00000000	     -0.00000000	      0.00000000	      0.00000000	      0.00000000	      0.00000000	      0.00000000	      0.00000000	      0.00000000
      0.15000000	      0.00000000	     -0.00000000	      0.00000000	      0.00000000	      0.00000000	      0.00000000	      0.00000000	      0.00000000	      0.00000000	      4.69634151	      9.35869217	   -503.28143311	   -317.14648553	  -1003.57283674	      0.00000000	      0.00000000	      0.00000000	    430.43671091	     -4.54353633	    -12.60823973	   -219.12553406	   -295.63310961	   -811.45009634	      0.00000000	      0.00000000	     -0.00000000	  -1571.29796130	      0.00000000	     -0.00000000	      0.00000000	      0.00000000	      0.00000000	      0.00000000	      0.00000000	      0.00000000	      0.00000000
      0.16000000	      0.00000000	     -0.00000000	      0.00000000	      0.00000000	      0.00000000	      0.00000000	      0.00000000	      0.00000000	      0.00000000	      4.97505426	      9.14441776	   -501.93646240	   -316.76022952	  -1003.23066573	      0.00000000	      0.00000000	      0.00000000	    602.97413307	     -4.96780507	    -12.71832232	   -218.71911621	   -296.63207380	   -812.80882989	      0.00000000	      0.00000000	     -0.00000000	  -1466.28890195	      0.00000000	     -0.00000000	      0.00000000	      0.00000000	      0.00000000	      0.00000000	      0.00000000	      0.00000000	      0.00000000
